# xmcd CD database file
#
# Track frame offsets:
#        150
#        25046
#        40136
#        54703
#        71451
#        92005
#        110735
#        124844
#        139113
#        157273
#        177861
#        190177
#        208878
#        225806
#        245075
#        269718
#
# Disc length: 3850 seconds
#
# Revision: 0
# Processed by: cddbd v1.5.2PL0 Copyright (c) Steve Scherf et al.
# Submitted via: CUERipper 2.1.5
#
DISCID=ea0f0810
DTITLE=Rumba 7 - Grandes exitos
DYEAR=1900
DGENRE=
TTITLE0=Mentira
TTITLE1=Mascaras
TTITLE2=Vaso de amor
TTITLE3=Chica bonita
TTITLE4=Tu sonrisa
TTITLE5=Corazoncito
TTITLE6=Negra salome
TTITLE7=Este sabado
TTITLE8=Gitana
TTITLE9=Llallaguenita
TTITLE10=Celosa
TTITLE11=Por jugar con el amor
TTITLE12=Maria
TTITLE13=Ya no
TTITLE14=Lloré lloré
TTITLE15=Si me quieres
EXTD=
EXTT0=
EXTT1=
EXTT2=
EXTT3=
EXTT4=
EXTT5=
EXTT6=
EXTT7=
EXTT8=
EXTT9=
EXTT10=
EXTT11=
EXTT12=
EXTT13=
EXTT14=
EXTT15=
PLAYORDER=
